# xmcd
#
# Track frame offsets:
#	150
#	13710
#	27641
#	49650
#	62461
#	75253
#	87272
#	103629
#	128477
#	141801
#	156856
#	173735
#	196074
#	211733
#
# Disc length: 3018 seconds
#
# Revision: 0
# Processed by: cddbd v1.5.2PL0 Copyright (c) Steve Scherf et al.
# Submitted via: EasyCDDAExtractor 2010.6.0.0
#
DISCID=a70bc80e
DTITLE=Various Artist - Mr Music Country  03 2011
DYEAR=2011
DGENRE=Country
TTITLE0=Allen Karl - That jukebox has a mind of it's own
TTITLE1=Dale Watson - Don't wanna go home song
TTITLE2=Kimmie Rhodes - I just drove by (2010 ver.)
TTITLE3=Johnny Bush and Justin Trevino - Tonight I break the bottle out
TTITLE4=Ulf ''Masken'' Andersson - Whiskey under the bridge
TTITLE5=Fayssoux McLean - Golightly creek
TTITLE6=Jamie Richards - Country song waitin' to happen
TTITLE7=Bruce Brittain - Taxi dance
TTITLE8=Kacey Jones - I wanna be a sweet potato queen
TTITLE9=Grant Langston - 30 days
TTITLE10=Bengt Huhta - Dianne from Cheyenne
TTITLE11=Berit Håpoldöy - All these years
TTITLE12=Snif Jacobsen - Old car
TTITLE13=Albert and Gage - Calling me home
EXTD=
EXTT0=
EXTT1=
EXTT2=
EXTT3=
EXTT4=
EXTT5=
EXTT6=
EXTT7=
EXTT8=
EXTT9=
EXTT10=
EXTT11=
EXTT12=
EXTT13=
PLAYORDER=
